# xmcd
#
# Track frame offsets: 
#        150
#        16013
#        32270
#        47627
#        61437
#        77114
#        90537
#        107008
#        123798
#        137665
#        152230
#        171658
#        187218
#        203880
#        216524
#        231253
#        245090
#        258904
#        273581
#        288053
#
# Disc length: 4029 seconds
#
# Revision: 0
# Processed by: cddbd v1.5.2PL0 Copyright (c) Steve Scherf et al.
# Submitted via: ExactAudioCopy v0.99pb4
#
DISCID=200fbb14
DTITLE=Christoff - Alle Hits
DYEAR=2010
DGENRE=Pop-Folk
TTITLE0=Zeven Zonden
TTITLE1=Een Ster
TTITLE2=Eenmaal Komt Voor Jou Die Dag
TTITLE3=Als Ik In Je Blauwe Ogen Kijk
TTITLE4=Miljonair
TTITLE5=Ja Jij!
TTITLE6=In 100.000 Jaren
TTITLE7=Ga Nooit Meer Van Huis
TTITLE8=Zaterdagavond (Met Dennie, Mieke and Lindsay)
TTITLE9=Je Maakt Me Zo Gek
TTITLE10=Onder De Toren
TTITLE11=Een Optimist
TTITLE12=Voor Jou, Mama
TTITLE13=Kopje Onder
TTITLE14=Ich Sag Nie Mehr Goodbye
TTITLE15=Der Mond Und Die Sterne
TTITLE16=Lekker Chocolade
TTITLE17='t Is Weer Tijd Voor De Polonaise
TTITLE18=Vaar Met Me Mee (Duet Met Lindsay)
TTITLE19=Een Droom Voor Alle Mensen
EXTD=
EXTT0=
EXTT1=
EXTT2=
EXTT3=
EXTT4=
EXTT5=
EXTT6=
EXTT7=
EXTT8=
EXTT9=
EXTT10=
EXTT11=
EXTT12=
EXTT13=
EXTT14=
EXTT15=
EXTT16=
EXTT17=
EXTT18=
EXTT19=
PLAYORDER=
